<svg xmlns="http://www.w3.org/2000/svg" viewBox="0 0 64 80" x="0px" y="0px"><g data-name="Layer 45"><path d="M57.66,42.57A27.52,27.52,0,0,1,28.27,4.51.52.52,0,0,0,28.21,4a.49.49,0,0,0-.47-.18A28.5,28.5,0,1,0,58.19,43.26a.5.5,0,0,0-.06-.5A.48.48,0,0,0,57.66,42.57ZM32,59.5A27.5,27.5,0,0,1,27,5,28.53,28.53,0,0,0,53.54,43.87a29.84,29.84,0,0,0,3.37-.2A27.5,27.5,0,0,1,32,59.5Z"/><path d="M60.39,12.27a2.16,2.16,0,0,0-2.07-1.48H53.21A1.18,1.18,0,0,1,52.08,10L50.56,5a2.18,2.18,0,0,0-4.17,0L44.87,10a1.18,1.18,0,0,1-1.13.83H38.63A2.18,2.18,0,0,0,37.3,14.7L41.58,18A1.17,1.17,0,0,1,42,19.25l-1.6,5.18A2.17,2.17,0,0,0,43.8,26.8l4-3a1.17,1.17,0,0,1,1.43,0l4,3a2.18,2.18,0,0,0,3.41-2.37L55,19.25A1.17,1.17,0,0,1,55.37,18l4.28-3.27A2.17,2.17,0,0,0,60.39,12.27ZM59,13.9l-4.28,3.27A2.2,2.2,0,0,0,54,19.55l1.6,5.17A1.18,1.18,0,0,1,53.76,26l-4-3a2.22,2.22,0,0,0-2.65,0l-4,3a1.18,1.18,0,0,1-1.84-1.29L43,19.55a2.19,2.19,0,0,0-.76-2.38L37.91,13.9a1.18,1.18,0,0,1,.72-2.11h5.11a2.17,2.17,0,0,0,2.08-1.54l1.53-4.94a1.18,1.18,0,0,1,2.25,0l1.53,4.94a2.17,2.17,0,0,0,2.08,1.54h5.11A1.18,1.18,0,0,1,59,13.9Z"/></g><text x="0" y="79" fill="#000000" font-size="5px" font-weight="bold" font-family="'Helvetica Neue', Helvetica, Arial-Unicode, Arial, Sans-serif">Created by Colourcreatype</text><text x="0" y="84" fill="#000000" font-size="5px" font-weight="bold" font-family="'Helvetica Neue', Helvetica, Arial-Unicode, Arial, Sans-serif">from the Noun Project</text></svg>